<svg width="1079" height="757" fill="none" xmlns="http://www.w3.org/2000/svg"><g opacity="0.07" clip-path="url(#clip0_2_889)"><path d="M-15 35.0622C0.922743 37.4932 26.7738 54.0238 61.4292 46.7309C96.0845 39.438 113.881 -1.72651 151.346 0.0562062C188.811 1.83892 203.797 52.6949 241.262 55.2879C278.728 57.881 293.714 12.0166 331.179 12.5028C368.644 12.989 383.631 55.0286 421.096 57.6217C458.561 60.2147 473.547 25.1114 511.012 24.9494C548.478 24.7873 563.464 57.0058 600.929 56.8437C638.394 56.6817 653.381 22.3887 690.846 24.1715C728.311 25.9542 743.297 65.5628 780.762 65.4008C818.228 65.2387 833.214 25.3383 870.679 23.3936C908.144 21.4488 925.94 53.6349 960.596 56.0658C995.251 58.4968 1021.1 39.438 1037.02 35.0622" stroke="url(#paint0_linear_2_889)" stroke-width="11" stroke-linecap="round"/><path d="M-15 700.661C0.922743 703.092 26.7738 719.622 61.4292 712.33C96.0845 705.037 113.881 663.872 151.346 665.655C188.811 667.438 203.797 718.294 241.262 720.887C278.728 723.48 293.714 677.615 331.179 678.101C368.644 678.588 383.631 720.627 421.096 723.22C458.561 725.813 473.547 690.71 511.012 690.548C548.478 690.386 563.464 722.604 600.929 722.442C638.394 722.28 653.381 687.987 690.846 689.77C728.311 691.553 743.297 731.161 780.762 730.999C818.228 730.837 833.214 690.937 870.679 688.992C908.144 687.047 925.94 719.233 960.596 721.664C995.251 724.095 1021.1 705.037 1037.02 700.661" stroke="url(#paint1_linear_2_889)" stroke-width="11" stroke-linecap="round"/><path d="M-15 668.966C0.922743 671.397 26.7738 687.927 61.4292 680.634C96.0845 673.342 113.881 632.177 151.346 633.96C188.811 635.742 203.797 686.598 241.262 689.191C278.728 691.785 293.714 645.92 331.179 646.406C368.644 646.893 383.631 688.932 421.096 691.525C458.561 694.118 473.547 659.015 511.012 658.853C548.478 658.691 563.464 690.909 600.929 690.747C638.394 690.585 653.381 656.292 690.846 658.075C728.311 659.858 743.297 699.466 780.762 699.304C818.228 699.142 833.214 659.242 870.679 657.297C908.144 655.352 925.94 687.538 960.596 689.969C995.251 692.4 1021.1 673.342 1037.02 668.966" stroke="url(#paint2_linear_2_889)" stroke-width="11" stroke-linecap="round"/><path d="M-15 637.271C0.922743 639.702 26.7738 656.232 61.4292 648.939C96.0845 641.646 113.881 600.482 151.346 602.265C188.811 604.047 203.797 654.903 241.262 657.496C278.728 660.089 293.714 614.225 331.179 614.711C368.644 615.197 383.631 657.237 421.096 659.83C458.561 662.423 473.547 627.32 511.012 627.158C548.478 626.996 563.464 659.214 600.929 659.052C638.394 658.89 653.381 624.597 690.846 626.38C728.311 628.163 743.297 667.771 780.762 667.609C818.228 667.447 833.214 627.547 870.679 625.602C908.144 623.657 925.94 655.843 960.596 658.274C995.251 660.705 1021.1 641.646 1037.02 637.271" stroke="url(#paint3_linear_2_889)" stroke-width="11" stroke-linecap="round"/><path d="M-15 605.575C0.922743 608.006 26.7738 624.537 61.4292 617.244C96.0845 609.951 113.881 568.787 151.346 570.569C188.811 572.352 203.797 623.208 241.262 625.801C278.728 628.394 293.714 582.53 331.179 583.016C368.644 583.502 383.631 625.542 421.096 628.135C458.561 630.728 473.547 595.625 511.012 595.463C548.478 595.3 563.464 627.519 600.929 627.357C638.394 627.195 653.381 592.902 690.846 594.685C728.311 596.467 743.297 636.076 780.762 635.914C818.228 635.752 833.214 595.852 870.679 593.907C908.144 591.962 925.94 624.148 960.596 626.579C995.251 629.01 1021.1 609.951 1037.02 605.575" stroke="url(#paint4_linear_2_889)" stroke-width="11" stroke-linecap="round"/><path d="M-15 573.88C0.922743 576.311 26.7738 592.842 61.4292 585.549C96.0845 578.256 113.881 537.092 151.346 538.874C188.811 540.657 203.797 591.513 241.262 594.106C278.728 596.699 293.714 550.835 331.179 551.321C368.644 551.807 383.631 593.847 421.096 596.44C458.561 599.033 473.547 563.93 511.012 563.767C548.478 563.605 563.464 595.824 600.929 595.662C638.394 595.5 653.381 561.207 690.846 562.99C728.311 564.772 743.297 604.381 780.762 604.219C818.228 604.057 833.214 564.156 870.679 562.212C908.144 560.267 925.94 592.453 960.596 594.884C995.251 597.315 1021.1 578.256 1037.02 573.88" stroke="url(#paint5_linear_2_889)" stroke-width="11" stroke-linecap="round"/><path d="M-15 542.185C0.922743 544.616 26.7738 561.147 61.4292 553.854C96.0845 546.561 113.881 505.396 151.346 507.179C188.811 508.962 203.797 559.818 241.262 562.411C278.728 565.004 293.714 519.139 331.179 519.626C368.644 520.112 383.631 562.151 421.096 564.744C458.561 567.337 473.547 532.234 511.012 532.072C548.478 531.91 563.464 564.129 600.929 563.967C638.394 563.804 653.381 529.512 690.846 531.294C728.311 533.077 743.297 572.686 780.762 572.524C818.228 572.362 833.214 532.461 870.679 530.516C908.144 528.572 925.94 560.758 960.596 563.189C995.251 565.62 1021.1 546.561 1037.02 542.185" stroke="url(#paint6_linear_2_889)" stroke-width="11" stroke-linecap="round"/><path d="M-15 510.49C0.922743 512.921 26.7738 529.452 61.4292 522.159C96.0845 514.866 113.881 473.701 151.346 475.484C188.811 477.267 203.797 528.123 241.262 530.716C278.728 533.309 293.714 487.444 331.179 487.931C368.644 488.417 383.631 530.456 421.096 533.049C458.561 535.642 473.547 500.539 511.012 500.377C548.478 500.215 563.464 532.434 600.929 532.271C638.394 532.109 653.381 497.816 690.846 499.599C728.311 501.382 743.297 540.991 780.762 540.829C818.228 540.666 833.214 500.766 870.679 498.821C908.144 496.877 925.94 529.063 960.596 531.494C995.251 533.925 1021.1 514.866 1037.02 510.49" stroke="url(#paint7_linear_2_889)" stroke-width="11" stroke-linecap="round"/><path d="M-15 478.795C0.922743 481.226 26.7738 497.756 61.4292 490.464C96.0845 483.171 113.881 442.006 151.346 443.789C188.811 445.572 203.797 496.428 241.262 499.021C278.728 501.614 293.714 455.749 331.179 456.235C368.644 456.722 383.631 498.761 421.096 501.354C458.561 503.947 473.547 468.844 511.012 468.682C548.478 468.52 563.464 500.738 600.929 500.576C638.394 500.414 653.381 466.121 690.846 467.904C728.311 469.687 743.297 509.295 780.762 509.133C818.228 508.971 833.214 469.071 870.679 467.126C908.144 465.181 925.94 497.368 960.596 499.798C995.251 502.229 1021.1 483.171 1037.02 478.795" stroke="url(#paint8_linear_2_889)" stroke-width="11" stroke-linecap="round"/><path d="M-15 447.099C0.922743 449.53 26.7738 466.061 61.4292 458.768C96.0845 451.475 113.881 410.311 151.346 412.093C188.811 413.876 203.797 464.732 241.262 467.325C278.728 469.918 293.714 424.054 331.179 424.54C368.644 425.026 383.631 467.066 421.096 469.659C458.561 472.252 473.547 437.149 511.012 436.986C548.478 436.824 563.464 469.043 600.929 468.881C638.394 468.719 653.381 434.426 690.846 436.209C728.311 437.991 743.297 477.6 780.762 477.438C818.228 477.276 833.214 437.375 870.679 435.431C908.144 433.486 925.94 465.672 960.596 468.103C995.251 470.534 1021.1 451.475 1037.02 447.099" stroke="url(#paint9_linear_2_889)" stroke-width="11" stroke-linecap="round"/><path d="M-15 415.404C0.922743 417.835 26.7738 434.366 61.4292 427.073C96.0845 419.78 113.881 378.616 151.346 380.398C188.811 382.181 203.797 433.037 241.262 435.63C278.728 438.223 293.714 392.359 331.179 392.845C368.644 393.331 383.631 435.371 421.096 437.964C458.561 440.557 473.547 405.453 511.012 405.291C548.478 405.129 563.464 437.348 600.929 437.186C638.394 437.024 653.381 402.731 690.846 404.514C728.311 406.296 743.297 445.905 780.762 445.743C818.228 445.581 833.214 405.68 870.679 403.736C908.144 401.791 925.94 433.977 960.596 436.408C995.251 438.839 1021.1 419.78 1037.02 415.404" stroke="url(#paint10_linear_2_889)" stroke-width="11" stroke-linecap="round"/><path d="M-15 383.709C0.922743 386.14 26.7738 402.671 61.4292 395.378C96.0845 388.085 113.881 346.92 151.346 348.703C188.811 350.486 203.797 401.342 241.262 403.935C278.728 406.528 293.714 360.664 331.179 361.15C368.644 361.636 383.631 403.676 421.096 406.269C458.561 408.862 473.547 373.758 511.012 373.596C548.478 373.434 563.464 405.653 600.929 405.491C638.394 405.329 653.381 371.036 690.846 372.818C728.311 374.601 743.297 414.21 780.762 414.048C818.228 413.886 833.214 373.985 870.679 372.041C908.144 370.096 925.94 402.282 960.596 404.713C995.251 407.144 1021.1 388.085 1037.02 383.709" stroke="url(#paint11_linear_2_889)" stroke-width="11" stroke-linecap="round"/><path d="M-15 352.014C0.922743 354.445 26.7738 370.976 61.4292 363.683C96.0845 356.39 113.881 315.225 151.346 317.008C188.811 318.791 203.797 369.647 241.262 372.24C278.728 374.833 293.714 328.968 331.179 329.455C368.644 329.941 383.631 371.981 421.096 374.574C458.561 377.167 473.547 342.063 511.012 341.901C548.478 341.739 563.464 373.958 600.929 373.796C638.394 373.634 653.381 339.341 690.846 341.123C728.311 342.906 743.297 382.515 780.762 382.353C818.228 382.191 833.214 342.29 870.679 340.345C908.144 338.401 925.94 370.587 960.596 373.018C995.251 375.449 1021.1 356.39 1037.02 352.014" stroke="url(#paint12_linear_2_889)" stroke-width="11" stroke-linecap="round"/><path d="M-15 320.319C0.922743 322.75 26.7738 339.28 61.4292 331.987C96.0845 324.695 113.881 283.53 151.346 285.313C188.811 287.096 203.797 337.951 241.262 340.545C278.728 343.138 293.714 297.273 331.179 297.759C368.644 298.246 383.631 340.285 421.096 342.878C458.561 345.471 473.547 310.368 511.012 310.206C548.478 310.044 563.464 342.262 600.929 342.1C638.394 341.938 653.381 307.645 690.846 309.428C728.311 311.211 743.297 350.819 780.762 350.657C818.228 350.495 833.214 310.595 870.679 308.65C908.144 306.705 925.94 338.891 960.596 341.322C995.251 343.753 1021.1 324.695 1037.02 320.319" stroke="url(#paint13_linear_2_889)" stroke-width="11" stroke-linecap="round"/><path d="M-15 288.624C0.922743 291.055 26.7738 307.585 61.4292 300.292C96.0845 292.999 113.881 251.835 151.346 253.618C188.811 255.4 203.797 306.256 241.262 308.849C278.728 311.442 293.714 265.578 331.179 266.064C368.644 266.551 383.631 308.59 421.096 311.183C458.561 313.776 473.547 278.673 511.012 278.511C548.478 278.349 563.464 310.567 600.929 310.405C638.394 310.243 653.381 275.95 690.846 277.733C728.311 279.516 743.297 319.124 780.762 318.962C818.228 318.8 833.214 278.9 870.679 276.955C908.144 275.01 925.94 307.196 960.596 309.627C995.251 312.058 1021.1 292.999 1037.02 288.624" stroke="url(#paint14_linear_2_889)" stroke-width="11" stroke-linecap="round"/><path d="M-15 256.928C0.922743 259.359 26.7738 275.89 61.4292 268.597C96.0845 261.304 113.881 220.14 151.346 221.922C188.811 223.705 203.797 274.561 241.262 277.154C278.728 279.747 293.714 233.883 331.179 234.369C368.644 234.855 383.631 276.895 421.096 279.488C458.561 282.081 473.547 246.978 511.012 246.816C548.478 246.654 563.464 278.872 600.929 278.71C638.394 278.548 653.381 244.255 690.846 246.038C728.311 247.82 743.297 287.429 780.762 287.267C818.228 287.105 833.214 247.205 870.679 245.26C908.144 243.315 925.94 275.501 960.596 277.932C995.251 280.363 1021.1 261.304 1037.02 256.928" stroke="url(#paint15_linear_2_889)" stroke-width="11" stroke-linecap="round"/><path d="M-15 225.233C0.922743 227.664 26.7738 244.195 61.4292 236.902C96.0845 229.609 113.881 188.445 151.346 190.227C188.811 192.01 203.797 242.866 241.262 245.459C278.728 248.052 293.714 202.188 331.179 202.674C368.644 203.16 383.631 245.2 421.096 247.793C458.561 250.386 473.547 215.283 511.012 215.121C548.478 214.958 563.464 247.177 600.929 247.015C638.394 246.853 653.381 212.56 690.846 214.343C728.311 216.125 743.297 255.734 780.762 255.572C818.228 255.41 833.214 215.509 870.679 213.565C908.144 211.62 925.94 243.806 960.596 246.237C995.251 248.668 1021.1 229.609 1037.02 225.233" stroke="url(#paint16_linear_2_889)" stroke-width="11" stroke-linecap="round"/><path d="M-15 193.538C0.922743 195.969 26.7738 212.5 61.4292 205.207C96.0845 197.914 113.881 156.749 151.346 158.532C188.811 160.315 203.797 211.171 241.262 213.764C278.728 216.357 293.714 170.492 331.179 170.979C368.644 171.465 383.631 213.504 421.096 216.097C458.561 218.691 473.547 183.587 511.012 183.425C548.478 183.263 563.464 215.482 600.929 215.32C638.394 215.158 653.381 180.865 690.846 182.647C728.311 184.43 743.297 224.039 780.762 223.877C818.228 223.715 833.214 183.814 870.679 181.869C908.144 179.925 925.94 212.111 960.596 214.542C995.251 216.973 1021.1 197.914 1037.02 193.538" stroke="url(#paint17_linear_2_889)" stroke-width="11" stroke-linecap="round"/><path d="M-15 161.843C0.922743 164.274 26.7738 180.805 61.4292 173.512C96.0845 166.219 113.881 125.054 151.346 126.837C188.811 128.62 203.797 179.476 241.262 182.069C278.728 184.662 293.714 138.797 331.179 139.284C368.644 139.77 383.631 181.809 421.096 184.402C458.561 186.995 473.547 151.892 511.012 151.73C548.478 151.568 563.464 183.787 600.929 183.625C638.394 183.462 653.381 149.17 690.846 150.952C728.311 152.735 743.297 192.344 780.762 192.182C818.228 192.019 833.214 152.119 870.679 150.174C908.144 148.23 925.94 180.416 960.596 182.847C995.251 185.278 1021.1 166.219 1037.02 161.843" stroke="url(#paint18_linear_2_889)" stroke-width="11" stroke-linecap="round"/><path d="M-15 130.148C0.922743 132.579 26.7738 149.11 61.4292 141.817C96.0845 134.524 113.881 93.3592 151.346 95.1419C188.811 96.9246 203.797 147.781 241.262 150.374C278.728 152.967 293.714 107.102 331.179 107.588C368.644 108.075 383.631 150.114 421.096 152.707C458.561 155.3 473.547 120.197 511.012 120.035C548.478 119.873 563.464 152.092 600.929 151.929C638.394 151.767 653.381 117.474 690.846 119.257C728.311 121.04 743.297 160.649 780.762 160.486C818.228 160.324 833.214 120.424 870.679 118.479C908.144 116.534 925.94 148.721 960.596 151.152C995.251 153.582 1021.1 134.524 1037.02 130.148" stroke="url(#paint19_linear_2_889)" stroke-width="11" stroke-linecap="round"/><path d="M-15 98.4526C0.922743 100.884 26.7738 117.414 61.4292 110.121C96.0845 102.828 113.881 61.6639 151.346 63.4466C188.811 65.2293 203.797 116.085 241.262 118.678C278.728 121.271 293.714 75.407 331.179 75.8932C368.644 76.3794 383.631 118.419 421.096 121.012C458.561 123.605 473.547 88.5018 511.012 88.3398C548.478 88.1777 563.464 120.396 600.929 120.234C638.394 120.072 653.381 85.7791 690.846 87.5618C728.311 89.3446 743.297 128.953 780.762 128.791C818.228 128.629 833.214 88.7287 870.679 86.7839C908.144 84.8392 925.94 117.025 960.596 119.456C995.251 121.887 1021.1 102.828 1037.02 98.4526" stroke="url(#paint20_linear_2_889)" stroke-width="11" stroke-linecap="round"/><path d="M-15 66.7573C0.922743 69.1883 26.7738 85.7189 61.4292 78.426C96.0845 71.133 113.881 29.9686 151.346 31.7513C188.811 33.534 203.797 84.3899 241.262 86.983C278.728 89.576 293.714 43.7117 331.179 44.1979C368.644 44.6841 383.631 86.7237 421.096 89.3167C458.561 91.9098 473.547 56.8065 511.012 56.6444C548.478 56.4824 563.464 88.7009 600.929 88.5388C638.394 88.3767 653.381 54.0838 690.846 55.8665C728.311 57.6492 743.297 97.2579 780.762 97.0958C818.228 96.9338 833.214 57.0334 870.679 55.0886C908.144 53.1438 925.94 85.3299 960.596 87.7609C995.251 90.1919 1021.1 71.133 1037.02 66.7573" stroke="url(#paint21_linear_2_889)" stroke-width="11" stroke-linecap="round"/></g><defs><linearGradient id="paint0_linear_2_889" x1="-75.7912" y1="-30319" x2="11263.5" y2="-30319" gradientUnits="userSpaceOnUse"><stop/><stop offset="1" stop-color="#F42A8B"/></linearGradient><linearGradient id="paint1_linear_2_889" x1="-75.7912" y1="-29653.4" x2="11263.5" y2="-29653.4" gradientUnits="userSpaceOnUse"><stop/><stop offset="1" stop-color="#F42A8B"/></linearGradient><linearGradient id="paint2_linear_2_889" x1="-75.7912" y1="-29685.1" x2="11263.5" y2="-29685.1" gradientUnits="userSpaceOnUse"><stop/><stop offset="1" stop-color="#F42A8B"/></linearGradient><linearGradient id="paint3_linear_2_889" x1="-75.7912" y1="-29716.8" x2="11263.5" y2="-29716.8" gradientUnits="userSpaceOnUse"><stop/><stop offset="1" stop-color="#F42A8B"/></linearGradient><linearGradient id="paint4_linear_2_889" x1="-75.7912" y1="-29748.5" x2="11263.5" y2="-29748.5" gradientUnits="userSpaceOnUse"><stop/><stop offset="1" stop-color="#F42A8B"/></linearGradient><linearGradient id="paint5_linear_2_889" x1="-75.7912" y1="-29780.2" x2="11263.5" y2="-29780.2" gradientUnits="userSpaceOnUse"><stop/><stop offset="1" stop-color="#F42A8B"/></linearGradient><linearGradient id="paint6_linear_2_889" x1="-75.7912" y1="-29811.9" x2="11263.5" y2="-29811.9" gradientUnits="userSpaceOnUse"><stop/><stop offset="1" stop-color="#F42A8B"/></linearGradient><linearGradient id="paint7_linear_2_889" x1="-75.7912" y1="-29843.6" x2="11263.5" y2="-29843.6" gradientUnits="userSpaceOnUse"><stop/><stop offset="1" stop-color="#F42A8B"/></linearGradient><linearGradient id="paint8_linear_2_889" x1="-75.7912" y1="-29875.3" x2="11263.5" y2="-29875.3" gradientUnits="userSpaceOnUse"><stop/><stop offset="1" stop-color="#F42A8B"/></linearGradient><linearGradient id="paint9_linear_2_889" x1="-75.7912" y1="-29907" x2="11263.5" y2="-29907" gradientUnits="userSpaceOnUse"><stop/><stop offset="1" stop-color="#F42A8B"/></linearGradient><linearGradient id="paint10_linear_2_889" x1="-75.7912" y1="-29938.7" x2="11263.5" y2="-29938.7" gradientUnits="userSpaceOnUse"><stop/><stop offset="1" stop-color="#F42A8B"/></linearGradient><linearGradient id="paint11_linear_2_889" x1="-75.7912" y1="-29970.4" x2="11263.5" y2="-29970.4" gradientUnits="userSpaceOnUse"><stop/><stop offset="1" stop-color="#F42A8B"/></linearGradient><linearGradient id="paint12_linear_2_889" x1="-75.7912" y1="-30002.1" x2="11263.5" y2="-30002.1" gradientUnits="userSpaceOnUse"><stop/><stop offset="1" stop-color="#F42A8B"/></linearGradient><linearGradient id="paint13_linear_2_889" x1="-75.7912" y1="-30033.8" x2="11263.5" y2="-30033.8" gradientUnits="userSpaceOnUse"><stop/><stop offset="1" stop-color="#F42A8B"/></linearGradient><linearGradient id="paint14_linear_2_889" x1="-75.7912" y1="-30065.5" x2="11263.5" y2="-30065.5" gradientUnits="userSpaceOnUse"><stop/><stop offset="1" stop-color="#F42A8B"/></linearGradient><linearGradient id="paint15_linear_2_889" x1="-75.7912" y1="-30097.2" x2="11263.5" y2="-30097.2" gradientUnits="userSpaceOnUse"><stop/><stop offset="1" stop-color="#F42A8B"/></linearGradient><linearGradient id="paint16_linear_2_889" x1="-75.7912" y1="-30128.9" x2="11263.5" y2="-30128.9" gradientUnits="userSpaceOnUse"><stop/><stop offset="1" stop-color="#F42A8B"/></linearGradient><linearGradient id="paint17_linear_2_889" x1="-75.7912" y1="-30160.6" x2="11263.5" y2="-30160.6" gradientUnits="userSpaceOnUse"><stop/><stop offset="1" stop-color="#F42A8B"/></linearGradient><linearGradient id="paint18_linear_2_889" x1="-75.7912" y1="-30192.3" x2="11263.5" y2="-30192.3" gradientUnits="userSpaceOnUse"><stop/><stop offset="1" stop-color="#F42A8B"/></linearGradient><linearGradient id="paint19_linear_2_889" x1="-75.7912" y1="-30224" x2="11263.5" y2="-30224" gradientUnits="userSpaceOnUse"><stop/><stop offset="1" stop-color="#F42A8B"/></linearGradient><linearGradient id="paint20_linear_2_889" x1="-75.7912" y1="-30255.7" x2="11263.5" y2="-30255.7" gradientUnits="userSpaceOnUse"><stop/><stop offset="1" stop-color="#F42A8B"/></linearGradient><linearGradient id="paint21_linear_2_889" x1="-75.7912" y1="-30287.3" x2="11263.5" y2="-30287.3" gradientUnits="userSpaceOnUse"><stop/><stop offset="1" stop-color="#F42A8B"/></linearGradient><clipPath id="clip0_2_889"><rect width="1079" height="757" fill="white"/></clipPath></defs></svg>