<svg width="710" height="727" viewBox="0 0 710 727" fill="none" xmlns="http://www.w3.org/2000/svg">
<path d="M5.9502 24.6756C16.5162 26.3864 33.6703 38.0201 56.6669 32.8876C79.6634 27.7551 91.4724 -1.21506 116.334 0.039556C141.195 1.29417 151.139 37.0848 176 38.9097C200.861 40.7346 210.806 8.45686 235.667 8.79903C260.528 9.14119 270.472 38.7272 295.334 40.5521C320.195 42.377 330.139 17.6726 355 17.5585C379.861 17.4444 389.806 40.1187 414.667 40.0046C439.528 39.8906 449.472 15.7564 474.334 17.011C499.195 18.2656 509.139 46.1408 534 46.0268C558.861 45.9127 568.806 17.8322 593.667 16.4636C618.528 15.0949 630.337 37.7463 653.334 39.4572C676.33 41.168 693.484 27.7551 704.05 24.6756" stroke="url(#paint0_linear_2_890)" stroke-width="11" stroke-linecap="round"/>
<path d="M5.9502 699.648C16.5162 701.359 33.6703 712.993 56.6669 707.86C79.6634 702.728 91.4724 673.758 116.334 675.012C141.195 676.267 151.139 712.058 176 713.883C200.861 715.707 210.806 683.43 235.667 683.772C260.528 684.114 270.472 713.7 295.334 715.525C320.195 717.35 330.139 692.645 355 692.531C379.861 692.417 389.806 715.092 414.667 714.978C439.528 714.863 449.472 690.729 474.334 691.984C499.195 693.239 509.139 721.114 534 721C558.861 720.886 568.806 692.805 593.667 691.436C618.528 690.068 630.337 712.719 653.334 714.43C676.33 716.141 693.484 702.728 704.05 699.648" stroke="url(#paint1_linear_2_890)" stroke-width="11" stroke-linecap="round"/>
<path d="M5.9502 667.507C16.5162 669.217 33.6703 680.851 56.6669 675.719C79.6634 670.586 91.4724 641.616 116.334 642.871C141.195 644.125 151.139 679.916 176 681.741C200.861 683.566 210.806 651.288 235.667 651.63C260.528 651.972 270.472 681.558 295.334 683.383C320.195 685.208 330.139 660.504 355 660.39C379.861 660.275 389.806 682.95 414.667 682.836C439.528 682.722 449.472 658.587 474.334 659.842C499.195 661.097 509.139 688.972 534 688.858C558.861 688.744 568.806 660.663 593.667 659.295C618.528 657.926 630.337 680.577 653.334 682.288C676.33 683.999 693.484 670.586 704.05 667.507" stroke="url(#paint2_linear_2_890)" stroke-width="11" stroke-linecap="round"/>
<path d="M5.9502 635.365C16.5162 637.076 33.6703 648.71 56.6669 643.577C79.6634 638.445 91.4724 609.475 116.334 610.729C141.195 611.984 151.139 647.775 176 649.599C200.861 651.424 210.806 619.147 235.667 619.489C260.528 619.831 270.472 649.417 295.334 651.242C320.195 653.067 330.139 628.362 355 628.248C379.861 628.134 389.806 650.808 414.667 650.694C439.528 650.58 449.472 626.446 474.334 627.701C499.195 628.955 509.139 656.831 534 656.716C558.861 656.602 568.806 628.522 593.667 627.153C618.528 625.785 630.337 648.436 653.334 650.147C676.33 651.858 693.484 638.445 704.05 635.365" stroke="url(#paint3_linear_2_890)" stroke-width="11" stroke-linecap="round"/>
<path d="M5.9502 603.224C16.5162 604.935 33.6703 616.568 56.6669 611.436C79.6634 606.303 91.4724 577.333 116.334 578.588C141.195 579.843 151.139 615.633 176 617.458C200.861 619.283 210.806 587.005 235.667 587.347C260.528 587.69 270.472 617.276 295.334 619.1C320.195 620.925 330.139 596.221 355 596.107C379.861 595.993 389.806 618.667 414.667 618.553C439.528 618.439 449.472 594.305 474.334 595.559C499.195 596.814 509.139 624.689 534 624.575C558.861 624.461 568.806 596.381 593.667 595.012C618.528 593.643 630.337 616.295 653.334 618.006C676.33 619.716 693.484 606.303 704.05 603.224" stroke="url(#paint4_linear_2_890)" stroke-width="11" stroke-linecap="round"/>
<path d="M5.9502 571.082C16.5162 572.793 33.6703 584.427 56.6669 579.294C79.6634 574.162 91.4724 545.191 116.334 546.446C141.195 547.701 151.139 583.491 176 585.316C200.861 587.141 210.806 554.863 235.667 555.206C260.528 555.548 270.472 585.134 295.334 586.959C320.195 588.783 330.139 564.079 355 563.965C379.861 563.851 389.806 586.525 414.667 586.411C439.528 586.297 449.472 562.163 474.334 563.418C499.195 564.672 509.139 592.547 534 592.433C558.861 592.319 568.806 564.239 593.667 562.87C618.528 561.501 630.337 584.153 653.334 585.864C676.33 587.575 693.484 574.162 704.05 571.082" stroke="url(#paint5_linear_2_890)" stroke-width="11" stroke-linecap="round"/>
<path d="M5.9502 538.94C16.5162 540.651 33.6703 552.285 56.6669 547.152C79.6634 542.02 91.4724 513.05 116.334 514.304C141.195 515.559 151.139 551.35 176 553.175C200.861 554.999 210.806 522.722 235.667 523.064C260.528 523.406 270.472 552.992 295.334 554.817C320.195 556.642 330.139 531.937 355 531.823C379.861 531.709 389.806 554.384 414.667 554.27C439.528 554.155 449.472 530.021 474.334 531.276C499.195 532.531 509.139 560.406 534 560.292C558.861 560.178 568.806 532.097 593.667 530.728C618.528 529.36 630.337 552.011 653.334 553.722C676.33 555.433 693.484 542.02 704.05 538.94" stroke="url(#paint6_linear_2_890)" stroke-width="11" stroke-linecap="round"/>
<path d="M5.9502 506.799C16.5162 508.51 33.6703 520.144 56.6669 515.011C79.6634 509.879 91.4724 480.908 116.334 482.163C141.195 483.418 151.139 519.208 176 521.033C200.861 522.858 210.806 490.58 235.667 490.923C260.528 491.265 270.472 520.851 295.334 522.676C320.195 524.501 330.139 499.796 355 499.682C379.861 499.568 389.806 522.242 414.667 522.128C439.528 522.014 449.472 497.88 474.334 499.135C499.195 500.389 509.139 528.264 534 528.15C558.861 528.036 568.806 499.956 593.667 498.587C618.528 497.218 630.337 519.87 653.334 521.581C676.33 523.292 693.484 509.879 704.05 506.799" stroke="url(#paint7_linear_2_890)" stroke-width="11" stroke-linecap="round"/>
<path d="M5.9502 474.658C16.5162 476.368 33.6703 488.002 56.6669 482.87C79.6634 477.737 91.4724 448.767 116.334 450.021C141.195 451.276 151.139 487.067 176 488.892C200.861 490.717 210.806 458.439 235.667 458.781C260.528 459.123 270.472 488.709 295.334 490.534C320.195 492.359 330.139 467.654 355 467.54C379.861 467.426 389.806 490.101 414.667 489.987C439.528 489.873 449.472 465.738 474.334 466.993C499.195 468.248 509.139 496.123 534 496.009C558.861 495.895 568.806 467.814 593.667 466.445C618.528 465.077 630.337 487.728 653.334 489.439C676.33 491.15 693.484 477.737 704.05 474.658" stroke="url(#paint8_linear_2_890)" stroke-width="11" stroke-linecap="round"/>
<path d="M5.9502 442.516C16.5162 444.227 33.6703 455.86 56.6669 450.728C79.6634 445.595 91.4724 416.625 116.334 417.88C141.195 419.134 151.139 454.925 176 456.75C200.861 458.575 210.806 426.297 235.667 426.639C260.528 426.982 270.472 456.568 295.334 458.392C320.195 460.217 330.139 435.513 355 435.399C379.861 435.285 389.806 457.959 414.667 457.845C439.528 457.731 449.472 433.597 474.334 434.851C499.195 436.106 509.139 463.981 534 463.867C558.861 463.753 568.806 435.673 593.667 434.304C618.528 432.935 630.337 455.587 653.334 457.298C676.33 459.008 693.484 445.595 704.05 442.516" stroke="url(#paint9_linear_2_890)" stroke-width="11" stroke-linecap="round"/>
<path d="M5.9502 410.374C16.5162 412.085 33.6703 423.719 56.6669 418.586C79.6634 413.454 91.4724 384.484 116.334 385.738C141.195 386.993 151.139 422.784 176 424.608C200.861 426.433 210.806 394.156 235.667 394.498C260.528 394.84 270.472 424.426 295.334 426.251C320.195 428.076 330.139 403.371 355 403.257C379.861 403.143 389.806 425.817 414.667 425.703C439.528 425.589 449.472 401.455 474.334 402.71C499.195 403.964 509.139 431.84 534 431.726C558.861 431.611 568.806 403.531 593.667 402.162C618.528 400.794 630.337 423.445 653.334 425.156C676.33 426.867 693.484 413.454 704.05 410.374" stroke="url(#paint10_linear_2_890)" stroke-width="11" stroke-linecap="round"/>
<path d="M5.9502 378.233C16.5162 379.944 33.6703 391.577 56.6669 386.445C79.6634 381.312 91.4724 352.342 116.334 353.597C141.195 354.852 151.139 390.642 176 392.467C200.861 394.292 210.806 362.014 235.667 362.356C260.528 362.699 270.472 392.285 295.334 394.109C320.195 395.934 330.139 371.23 355 371.116C379.861 371.002 389.806 393.676 414.667 393.562C439.528 393.448 449.472 369.314 474.334 370.568C499.195 371.823 509.139 399.698 534 399.584C558.861 399.47 568.806 371.39 593.667 370.021C618.528 368.652 630.337 391.304 653.334 393.015C676.33 394.725 693.484 381.312 704.05 378.233" stroke="url(#paint11_linear_2_890)" stroke-width="11" stroke-linecap="round"/>
<path d="M5.9502 346.091C16.5162 347.802 33.6703 359.436 56.6669 354.303C79.6634 349.171 91.4724 320.2 116.334 321.455C141.195 322.71 151.139 358.5 176 360.325C200.861 362.15 210.806 329.872 235.667 330.215C260.528 330.557 270.472 360.143 295.334 361.968C320.195 363.793 330.139 339.088 355 338.974C379.861 338.86 389.806 361.534 414.667 361.42C439.528 361.306 449.472 337.172 474.334 338.427C499.195 339.681 509.139 367.556 534 367.442C558.861 367.328 568.806 339.248 593.667 337.879C618.528 336.51 630.337 359.162 653.334 360.873C676.33 362.584 693.484 349.171 704.05 346.091" stroke="url(#paint12_linear_2_890)" stroke-width="11" stroke-linecap="round"/>
<path d="M5.9502 313.949C16.5162 315.66 33.6703 327.294 56.6669 322.161C79.6634 317.029 91.4724 288.059 116.334 289.313C141.195 290.568 151.139 326.359 176 328.184C200.861 330.009 210.806 297.731 235.667 298.073C260.528 298.415 270.472 328.001 295.334 329.826C320.195 331.651 330.139 306.946 355 306.832C379.861 306.718 389.806 329.393 414.667 329.279C439.528 329.165 449.472 305.03 474.334 306.285C499.195 307.54 509.139 335.415 534 335.301C558.861 335.187 568.806 307.106 593.667 305.737C618.528 304.369 630.337 327.02 653.334 328.731C676.33 330.442 693.484 317.029 704.05 313.949" stroke="url(#paint13_linear_2_890)" stroke-width="11" stroke-linecap="round"/>
<path d="M5.9502 281.808C16.5162 283.519 33.6703 295.153 56.6669 290.02C79.6634 284.888 91.4724 255.918 116.334 257.172C141.195 258.427 151.139 294.217 176 296.042C200.861 297.867 210.806 265.589 235.667 265.932C260.528 266.274 270.472 295.86 295.334 297.685C320.195 299.51 330.139 274.805 355 274.691C379.861 274.577 389.806 297.251 414.667 297.137C439.528 297.023 449.472 272.889 474.334 274.144C499.195 275.398 509.139 303.273 534 303.159C558.861 303.045 568.806 274.965 593.667 273.596C618.528 272.227 630.337 294.879 653.334 296.59C676.33 298.301 693.484 284.888 704.05 281.808" stroke="url(#paint14_linear_2_890)" stroke-width="11" stroke-linecap="round"/>
<path d="M5.9502 249.667C16.5162 251.377 33.6703 263.011 56.6669 257.879C79.6634 252.746 91.4724 223.776 116.334 225.031C141.195 226.285 151.139 262.076 176 263.901C200.861 265.726 210.806 233.448 235.667 233.79C260.528 234.132 270.472 263.718 295.334 265.543C320.195 267.368 330.139 242.664 355 242.549C379.861 242.435 389.806 265.11 414.667 264.996C439.528 264.882 449.472 240.747 474.334 242.002C499.195 243.257 509.139 271.132 534 271.018C558.861 270.904 568.806 242.823 593.667 241.455C618.528 240.086 630.337 262.737 653.334 264.448C676.33 266.159 693.484 252.746 704.05 249.667" stroke="url(#paint15_linear_2_890)" stroke-width="11" stroke-linecap="round"/>
<path d="M5.9502 217.525C16.5162 219.236 33.6703 230.87 56.6669 225.737C79.6634 220.605 91.4724 191.635 116.334 192.889C141.195 194.144 151.139 229.934 176 231.759C200.861 233.584 210.806 201.306 235.667 201.649C260.528 201.991 270.472 231.577 295.334 233.402C320.195 235.227 330.139 210.522 355 210.408C379.861 210.294 389.806 232.968 414.667 232.854C439.528 232.74 449.472 208.606 474.334 209.861C499.195 211.115 509.139 238.99 534 238.876C558.861 238.762 568.806 210.682 593.667 209.313C618.528 207.945 630.337 230.596 653.334 232.307C676.33 234.018 693.484 220.605 704.05 217.525" stroke="url(#paint16_linear_2_890)" stroke-width="11" stroke-linecap="round"/>
<path d="M5.9502 185.383C16.5162 187.094 33.6703 198.728 56.6669 193.595C79.6634 188.463 91.4724 159.493 116.334 160.747C141.195 162.002 151.139 197.793 176 199.617C200.861 201.442 210.806 169.165 235.667 169.507C260.528 169.849 270.472 199.435 295.334 201.26C320.195 203.085 330.139 178.38 355 178.266C379.861 178.152 389.806 200.826 414.667 200.712C439.528 200.598 449.472 176.464 474.334 177.719C499.195 178.973 509.139 206.849 534 206.735C558.861 206.62 568.806 178.54 593.667 177.171C618.528 175.803 630.337 198.454 653.334 200.165C676.33 201.876 693.484 188.463 704.05 185.383" stroke="url(#paint17_linear_2_890)" stroke-width="11" stroke-linecap="round"/>
<path d="M5.9502 153.242C16.5162 154.953 33.6703 166.586 56.6669 161.454C79.6634 156.321 91.4724 127.351 116.334 128.606C141.195 129.86 151.139 165.651 176 167.476C200.861 169.301 210.806 137.023 235.667 137.365C260.528 137.707 270.472 167.293 295.334 169.118C320.195 170.943 330.139 146.239 355 146.125C379.861 146.011 389.806 168.685 414.667 168.571C439.528 168.457 449.472 144.323 474.334 145.577C499.195 146.832 509.139 174.707 534 174.593C558.861 174.479 568.806 146.398 593.667 145.03C618.528 143.661 630.337 166.313 653.334 168.023C676.33 169.734 693.484 156.321 704.05 153.242" stroke="url(#paint18_linear_2_890)" stroke-width="11" stroke-linecap="round"/>
<path d="M5.9502 121.1C16.5162 122.811 33.6703 134.445 56.6669 129.312C79.6634 124.18 91.4724 95.2097 116.334 96.4644C141.195 97.719 151.139 133.51 176 135.335C200.861 137.159 210.806 104.882 235.667 105.224C260.528 105.566 270.472 135.152 295.334 136.977C320.195 138.802 330.139 114.097 355 113.983C379.861 113.869 389.806 136.544 414.667 136.429C439.528 136.315 449.472 112.181 474.334 113.436C499.195 114.69 509.139 142.566 534 142.452C558.861 142.338 568.806 114.257 593.667 112.888C618.528 111.52 630.337 134.171 653.334 135.882C676.33 137.593 693.484 124.18 704.05 121.1" stroke="url(#paint19_linear_2_890)" stroke-width="11" stroke-linecap="round"/>
<path d="M5.9502 88.9588C16.5162 90.6696 33.6703 102.303 56.6669 97.1708C79.6634 92.0383 91.4724 63.0681 116.334 64.3228C141.195 65.5774 151.139 101.368 176 103.193C200.861 105.018 210.806 72.7401 235.667 73.0822C260.528 73.4244 270.472 103.01 295.334 104.835C320.195 106.66 330.139 81.9558 355 81.8417C379.861 81.7276 389.806 104.402 414.667 104.288C439.528 104.174 449.472 80.0396 474.334 81.2942C499.195 82.5488 509.139 110.424 534 110.31C558.861 110.196 568.806 82.1154 593.667 80.7468C618.528 79.3781 630.337 102.03 653.334 103.74C676.33 105.451 693.484 92.0383 704.05 88.9588" stroke="url(#paint20_linear_2_890)" stroke-width="11" stroke-linecap="round"/>
<path d="M5.9502 56.8172C16.5162 58.528 33.6703 70.1617 56.6669 65.0292C79.6634 59.8967 91.4724 30.9265 116.334 32.1812C141.195 33.4358 151.139 69.2264 176 71.0513C200.861 72.8762 210.806 40.5985 235.667 40.9406C260.528 41.2828 270.472 70.8688 295.334 72.6937C320.195 74.5186 330.139 49.8142 355 49.7001C379.861 49.586 389.806 72.2603 414.667 72.1462C439.528 72.0322 449.472 47.898 474.334 49.1526C499.195 50.4072 509.139 78.2824 534 78.1684C558.861 78.0543 568.806 49.9738 593.667 48.6052C618.528 47.2365 630.337 69.8879 653.334 71.5988C676.33 73.3096 693.484 59.8967 704.05 56.8172" stroke="url(#paint21_linear_2_890)" stroke-width="11" stroke-linecap="round"/>
<defs>
<linearGradient id="paint0_linear_2_890" x1="-34.3895" y1="-21337.5" x2="7490.13" y2="-21337.5" gradientUnits="userSpaceOnUse">
<stop/>
<stop offset="1" stop-color="#F42A8B"/>
</linearGradient>
<linearGradient id="paint1_linear_2_890" x1="-34.3895" y1="-20662.5" x2="7490.13" y2="-20662.5" gradientUnits="userSpaceOnUse">
<stop/>
<stop offset="1" stop-color="#F42A8B"/>
</linearGradient>
<linearGradient id="paint2_linear_2_890" x1="-34.3895" y1="-20694.7" x2="7490.13" y2="-20694.7" gradientUnits="userSpaceOnUse">
<stop/>
<stop offset="1" stop-color="#F42A8B"/>
</linearGradient>
<linearGradient id="paint3_linear_2_890" x1="-34.3895" y1="-20726.8" x2="7490.13" y2="-20726.8" gradientUnits="userSpaceOnUse">
<stop/>
<stop offset="1" stop-color="#F42A8B"/>
</linearGradient>
<linearGradient id="paint4_linear_2_890" x1="-34.3895" y1="-20758.9" x2="7490.13" y2="-20758.9" gradientUnits="userSpaceOnUse">
<stop/>
<stop offset="1" stop-color="#F42A8B"/>
</linearGradient>
<linearGradient id="paint5_linear_2_890" x1="-34.3895" y1="-20791.1" x2="7490.13" y2="-20791.1" gradientUnits="userSpaceOnUse">
<stop/>
<stop offset="1" stop-color="#F42A8B"/>
</linearGradient>
<linearGradient id="paint6_linear_2_890" x1="-34.3895" y1="-20823.2" x2="7490.13" y2="-20823.2" gradientUnits="userSpaceOnUse">
<stop/>
<stop offset="1" stop-color="#F42A8B"/>
</linearGradient>
<linearGradient id="paint7_linear_2_890" x1="-34.3895" y1="-20855.4" x2="7490.13" y2="-20855.4" gradientUnits="userSpaceOnUse">
<stop/>
<stop offset="1" stop-color="#F42A8B"/>
</linearGradient>
<linearGradient id="paint8_linear_2_890" x1="-34.3895" y1="-20887.5" x2="7490.13" y2="-20887.5" gradientUnits="userSpaceOnUse">
<stop/>
<stop offset="1" stop-color="#F42A8B"/>
</linearGradient>
<linearGradient id="paint9_linear_2_890" x1="-34.3895" y1="-20919.6" x2="7490.13" y2="-20919.6" gradientUnits="userSpaceOnUse">
<stop/>
<stop offset="1" stop-color="#F42A8B"/>
</linearGradient>
<linearGradient id="paint10_linear_2_890" x1="-34.3895" y1="-20951.8" x2="7490.13" y2="-20951.8" gradientUnits="userSpaceOnUse">
<stop/>
<stop offset="1" stop-color="#F42A8B"/>
</linearGradient>
<linearGradient id="paint11_linear_2_890" x1="-34.3895" y1="-20983.9" x2="7490.13" y2="-20983.9" gradientUnits="userSpaceOnUse">
<stop/>
<stop offset="1" stop-color="#F42A8B"/>
</linearGradient>
<linearGradient id="paint12_linear_2_890" x1="-34.3895" y1="-21016.1" x2="7490.13" y2="-21016.1" gradientUnits="userSpaceOnUse">
<stop/>
<stop offset="1" stop-color="#F42A8B"/>
</linearGradient>
<linearGradient id="paint13_linear_2_890" x1="-34.3895" y1="-21048.2" x2="7490.13" y2="-21048.2" gradientUnits="userSpaceOnUse">
<stop/>
<stop offset="1" stop-color="#F42A8B"/>
</linearGradient>
<linearGradient id="paint14_linear_2_890" x1="-34.3895" y1="-21080.4" x2="7490.13" y2="-21080.4" gradientUnits="userSpaceOnUse">
<stop/>
<stop offset="1" stop-color="#F42A8B"/>
</linearGradient>
<linearGradient id="paint15_linear_2_890" x1="-34.3895" y1="-21112.5" x2="7490.13" y2="-21112.5" gradientUnits="userSpaceOnUse">
<stop/>
<stop offset="1" stop-color="#F42A8B"/>
</linearGradient>
<linearGradient id="paint16_linear_2_890" x1="-34.3895" y1="-21144.6" x2="7490.13" y2="-21144.6" gradientUnits="userSpaceOnUse">
<stop/>
<stop offset="1" stop-color="#F42A8B"/>
</linearGradient>
<linearGradient id="paint17_linear_2_890" x1="-34.3895" y1="-21176.8" x2="7490.13" y2="-21176.8" gradientUnits="userSpaceOnUse">
<stop/>
<stop offset="1" stop-color="#F42A8B"/>
</linearGradient>
<linearGradient id="paint18_linear_2_890" x1="-34.3895" y1="-21208.9" x2="7490.13" y2="-21208.9" gradientUnits="userSpaceOnUse">
<stop/>
<stop offset="1" stop-color="#F42A8B"/>
</linearGradient>
<linearGradient id="paint19_linear_2_890" x1="-34.3895" y1="-21241.1" x2="7490.13" y2="-21241.1" gradientUnits="userSpaceOnUse">
<stop/>
<stop offset="1" stop-color="#F42A8B"/>
</linearGradient>
<linearGradient id="paint20_linear_2_890" x1="-34.3895" y1="-21273.2" x2="7490.13" y2="-21273.2" gradientUnits="userSpaceOnUse">
<stop/>
<stop offset="1" stop-color="#F42A8B"/>
</linearGradient>
<linearGradient id="paint21_linear_2_890" x1="-34.3895" y1="-21305.3" x2="7490.13" y2="-21305.3" gradientUnits="userSpaceOnUse">
<stop/>
<stop offset="1" stop-color="#F42A8B"/>
</linearGradient>
</defs>
</svg>
