<svg width="1815" height="910" viewBox="0 0 1815 910" fill="none" xmlns="http://www.w3.org/2000/svg">
<g clip-path="url(#clip0_46_54)">
<path d="M-2.6626 57.8415C24.8886 60.818 69.6188 81.0587 129.583 72.129C189.548 63.1993 220.34 12.7962 285.167 14.979C349.993 17.1618 375.924 79.4315 440.75 82.6065C505.576 85.7815 531.507 29.6237 596.333 30.219C661.16 30.8143 687.09 82.289 751.917 85.464C816.743 88.639 842.674 45.6574 907.5 45.459C972.326 45.2605 998.257 84.7099 1063.08 84.5115C1127.91 84.313 1153.84 42.3237 1218.67 44.5065C1283.49 46.6893 1309.42 95.1874 1374.25 94.989C1439.08 94.7905 1465.01 45.9352 1529.83 43.554C1594.66 41.1727 1625.45 80.5824 1685.42 83.559C1745.38 86.5355 1790.11 63.1993 1817.66 57.8415" stroke="url(#paint0_linear_46_54)" stroke-width="11" stroke-linecap="round"/>
<path d="M-2.6626 857.942C24.8886 860.918 69.6188 881.159 129.583 872.229C189.548 863.299 220.34 812.896 285.167 815.079C349.993 817.262 375.924 879.532 440.75 882.707C505.576 885.882 531.507 829.724 596.333 830.319C661.16 830.914 687.09 882.389 751.917 885.564C816.743 888.739 842.674 845.758 907.5 845.559C972.326 845.361 998.257 884.81 1063.08 884.612C1127.91 884.413 1153.84 842.424 1218.67 844.607C1283.49 846.789 1309.42 895.288 1374.25 895.089C1439.08 894.891 1465.01 846.035 1529.83 843.654C1594.66 841.273 1625.45 880.683 1685.42 883.659C1745.38 886.636 1790.11 863.299 1817.66 857.942" stroke="url(#paint1_linear_46_54)" stroke-width="11" stroke-linecap="round"/>
<path d="M-2.6626 819.841C24.8886 822.818 69.6188 843.059 129.583 834.129C189.548 825.199 220.34 774.796 285.167 776.979C349.993 779.162 375.924 841.431 440.75 844.606C505.576 847.781 531.507 791.624 596.333 792.219C661.16 792.814 687.09 844.289 751.917 847.464C816.743 850.639 842.674 807.657 907.5 807.459C972.326 807.261 998.257 846.71 1063.08 846.511C1127.91 846.313 1153.84 804.324 1218.67 806.506C1283.49 808.689 1309.42 857.187 1374.25 856.989C1439.08 856.791 1465.01 807.935 1529.83 805.554C1594.66 803.173 1625.45 842.582 1685.42 845.559C1745.38 848.536 1790.11 825.199 1817.66 819.841" stroke="url(#paint2_linear_46_54)" stroke-width="11" stroke-linecap="round"/>
<path d="M-2.6626 781.741C24.8886 784.718 69.6188 804.959 129.583 796.029C189.548 787.099 220.34 736.696 285.167 738.879C349.993 741.062 375.924 803.331 440.75 806.506C505.576 809.681 531.507 753.524 596.333 754.119C661.16 754.714 687.09 806.189 751.917 809.364C816.743 812.539 842.674 769.557 907.5 769.359C972.326 769.16 998.257 808.61 1063.08 808.411C1127.91 808.213 1153.84 766.224 1218.67 768.406C1283.49 770.589 1309.42 819.087 1374.25 818.889C1439.08 818.69 1465.01 769.835 1529.83 767.454C1594.66 765.073 1625.45 804.482 1685.42 807.459C1745.38 810.435 1790.11 787.099 1817.66 781.741" stroke="url(#paint3_linear_46_54)" stroke-width="11" stroke-linecap="round"/>
<path d="M-2.6626 743.641C24.8886 746.618 69.6188 766.858 129.583 757.929C189.548 748.999 220.34 698.596 285.167 700.779C349.993 702.962 375.924 765.231 440.75 768.406C505.576 771.581 531.507 715.423 596.333 716.019C661.16 716.614 687.09 768.089 751.917 771.264C816.743 774.439 842.674 731.457 907.5 731.259C972.326 731.06 998.257 770.51 1063.08 770.311C1127.91 770.113 1153.84 728.123 1218.67 730.306C1283.49 732.489 1309.42 780.987 1374.25 780.789C1439.08 780.59 1465.01 731.735 1529.83 729.354C1594.66 726.973 1625.45 766.382 1685.42 769.359C1745.38 772.335 1790.11 748.999 1817.66 743.641" stroke="url(#paint4_linear_46_54)" stroke-width="11" stroke-linecap="round"/>
<path d="M-2.6626 705.542C24.8886 708.518 69.6188 728.759 129.583 719.829C189.548 710.899 220.34 660.496 285.167 662.679C349.993 664.862 375.924 727.132 440.75 730.307C505.576 733.482 531.507 677.324 596.333 677.919C661.16 678.514 687.09 729.989 751.917 733.164C816.743 736.339 842.674 693.358 907.5 693.159C972.326 692.961 998.257 732.41 1063.08 732.212C1127.91 732.013 1153.84 690.024 1218.67 692.207C1283.49 694.389 1309.42 742.888 1374.25 742.689C1439.08 742.491 1465.01 693.635 1529.83 691.254C1594.66 688.873 1625.45 728.283 1685.42 731.259C1745.38 734.236 1790.11 710.899 1817.66 705.542" stroke="url(#paint5_linear_46_54)" stroke-width="11" stroke-linecap="round"/>
<path d="M-2.6626 667.442C24.8886 670.418 69.6188 690.659 129.583 681.729C189.548 672.799 220.34 622.396 285.167 624.579C349.993 626.762 375.924 689.032 440.75 692.207C505.576 695.382 531.507 639.224 596.333 639.819C661.16 640.414 687.09 691.889 751.917 695.064C816.743 698.239 842.674 655.258 907.5 655.059C972.326 654.861 998.257 694.31 1063.08 694.112C1127.91 693.913 1153.84 651.924 1218.67 654.107C1283.49 656.289 1309.42 704.788 1374.25 704.589C1439.08 704.391 1465.01 655.535 1529.83 653.154C1594.66 650.773 1625.45 690.183 1685.42 693.159C1745.38 696.136 1790.11 672.799 1817.66 667.442" stroke="url(#paint6_linear_46_54)" stroke-width="11" stroke-linecap="round"/>
<path d="M-2.6626 629.341C24.8886 632.318 69.6188 652.559 129.583 643.629C189.548 634.699 220.34 584.296 285.167 586.479C349.993 588.662 375.924 650.931 440.75 654.106C505.576 657.281 531.507 601.124 596.333 601.719C661.16 602.314 687.09 653.789 751.917 656.964C816.743 660.139 842.674 617.157 907.5 616.959C972.326 616.761 998.257 656.21 1063.08 656.011C1127.91 655.813 1153.84 613.824 1218.67 616.006C1283.49 618.189 1309.42 666.687 1374.25 666.489C1439.08 666.291 1465.01 617.435 1529.83 615.054C1594.66 612.673 1625.45 652.082 1685.42 655.059C1745.38 658.036 1790.11 634.699 1817.66 629.341" stroke="url(#paint7_linear_46_54)" stroke-width="11" stroke-linecap="round"/>
<path d="M-2.6626 591.241C24.8886 594.218 69.6188 614.459 129.583 605.529C189.548 596.599 220.34 546.196 285.167 548.379C349.993 550.562 375.924 612.831 440.75 616.006C505.576 619.181 531.507 563.024 596.333 563.619C661.16 564.214 687.09 615.689 751.917 618.864C816.743 622.039 842.674 579.057 907.5 578.859C972.326 578.66 998.257 618.11 1063.08 617.911C1127.91 617.713 1153.84 575.724 1218.67 577.906C1283.49 580.089 1309.42 628.587 1374.25 628.389C1439.08 628.19 1465.01 579.335 1529.83 576.954C1594.66 574.573 1625.45 613.982 1685.42 616.959C1745.38 619.935 1790.11 596.599 1817.66 591.241" stroke="url(#paint8_linear_46_54)" stroke-width="11" stroke-linecap="round"/>
<path d="M-2.6626 553.141C24.8886 556.118 69.6188 576.358 129.583 567.429C189.548 558.499 220.34 508.096 285.167 510.279C349.993 512.462 375.924 574.731 440.75 577.906C505.576 581.081 531.507 524.923 596.333 525.519C661.16 526.114 687.09 577.589 751.917 580.764C816.743 583.939 842.674 540.957 907.5 540.759C972.326 540.56 998.257 580.01 1063.08 579.811C1127.91 579.613 1153.84 537.623 1218.67 539.806C1283.49 541.989 1309.42 590.487 1374.25 590.289C1439.08 590.09 1465.01 541.235 1529.83 538.854C1594.66 536.473 1625.45 575.882 1685.42 578.859C1745.38 581.835 1790.11 558.499 1817.66 553.141" stroke="url(#paint9_linear_46_54)" stroke-width="11" stroke-linecap="round"/>
<path d="M-2.6626 515.042C24.8886 518.018 69.6188 538.259 129.583 529.329C189.548 520.399 220.34 469.996 285.167 472.179C349.993 474.362 375.924 536.632 440.75 539.807C505.576 542.982 531.507 486.824 596.333 487.419C661.16 488.014 687.09 539.489 751.917 542.664C816.743 545.839 842.674 502.858 907.5 502.659C972.326 502.461 998.257 541.91 1063.08 541.712C1127.91 541.513 1153.84 499.524 1218.67 501.707C1283.49 503.889 1309.42 552.388 1374.25 552.189C1439.08 551.991 1465.01 503.135 1529.83 500.754C1594.66 498.373 1625.45 537.783 1685.42 540.759C1745.38 543.736 1790.11 520.399 1817.66 515.042" stroke="url(#paint10_linear_46_54)" stroke-width="11" stroke-linecap="round"/>
<path d="M-2.6626 476.942C24.8886 479.918 69.6188 500.159 129.583 491.229C189.548 482.299 220.34 431.896 285.167 434.079C349.993 436.262 375.924 498.532 440.75 501.707C505.576 504.882 531.507 448.724 596.333 449.319C661.16 449.914 687.09 501.389 751.917 504.564C816.743 507.739 842.674 464.758 907.5 464.559C972.326 464.361 998.257 503.81 1063.08 503.612C1127.91 503.413 1153.84 461.424 1218.67 463.607C1283.49 465.789 1309.42 514.288 1374.25 514.089C1439.08 513.891 1465.01 465.035 1529.83 462.654C1594.66 460.273 1625.45 499.683 1685.42 502.659C1745.38 505.636 1790.11 482.299 1817.66 476.942" stroke="url(#paint11_linear_46_54)" stroke-width="11" stroke-linecap="round"/>
<path d="M-2.6626 438.841C24.8886 441.818 69.6188 462.059 129.583 453.129C189.548 444.199 220.34 393.796 285.167 395.979C349.993 398.162 375.924 460.431 440.75 463.606C505.576 466.781 531.507 410.624 596.333 411.219C661.16 411.814 687.09 463.289 751.917 466.464C816.743 469.639 842.674 426.657 907.5 426.459C972.326 426.261 998.257 465.71 1063.08 465.511C1127.91 465.313 1153.84 423.324 1218.67 425.506C1283.49 427.689 1309.42 476.187 1374.25 475.989C1439.08 475.791 1465.01 426.935 1529.83 424.554C1594.66 422.173 1625.45 461.582 1685.42 464.559C1745.38 467.536 1790.11 444.199 1817.66 438.841" stroke="url(#paint12_linear_46_54)" stroke-width="11" stroke-linecap="round"/>
<path d="M-2.6626 400.741C24.8886 403.718 69.6188 423.959 129.583 415.029C189.548 406.099 220.34 355.696 285.167 357.879C349.993 360.062 375.924 422.331 440.75 425.506C505.576 428.681 531.507 372.524 596.333 373.119C661.16 373.714 687.09 425.189 751.917 428.364C816.743 431.539 842.674 388.557 907.5 388.359C972.326 388.16 998.257 427.61 1063.08 427.411C1127.91 427.213 1153.84 385.224 1218.67 387.406C1283.49 389.589 1309.42 438.087 1374.25 437.889C1439.08 437.69 1465.01 388.835 1529.83 386.454C1594.66 384.073 1625.45 423.482 1685.42 426.459C1745.38 429.435 1790.11 406.099 1817.66 400.741" stroke="url(#paint13_linear_46_54)" stroke-width="11" stroke-linecap="round"/>
<path d="M-2.6626 362.641C24.8886 365.618 69.6188 385.858 129.583 376.929C189.548 367.999 220.34 317.596 285.167 319.779C349.993 321.962 375.924 384.231 440.75 387.406C505.576 390.581 531.507 334.423 596.333 335.019C661.16 335.614 687.09 387.089 751.917 390.264C816.743 393.439 842.674 350.457 907.5 350.259C972.326 350.06 998.257 389.51 1063.08 389.311C1127.91 389.113 1153.84 347.123 1218.67 349.306C1283.49 351.489 1309.42 399.987 1374.25 399.789C1439.08 399.59 1465.01 350.735 1529.83 348.354C1594.66 345.973 1625.45 385.382 1685.42 388.359C1745.38 391.335 1790.11 367.999 1817.66 362.641" stroke="url(#paint14_linear_46_54)" stroke-width="11" stroke-linecap="round"/>
<path d="M-2.6626 324.542C24.8886 327.518 69.6188 347.759 129.583 338.829C189.548 329.899 220.34 279.496 285.167 281.679C349.993 283.862 375.924 346.132 440.75 349.307C505.576 352.482 531.507 296.324 596.333 296.919C661.16 297.514 687.09 348.989 751.917 352.164C816.743 355.339 842.674 312.358 907.5 312.159C972.326 311.961 998.257 351.41 1063.08 351.212C1127.91 351.013 1153.84 309.024 1218.67 311.207C1283.49 313.389 1309.42 361.888 1374.25 361.689C1439.08 361.491 1465.01 312.635 1529.83 310.254C1594.66 307.873 1625.45 347.283 1685.42 350.259C1745.38 353.236 1790.11 329.899 1817.66 324.542" stroke="url(#paint15_linear_46_54)" stroke-width="11" stroke-linecap="round"/>
<path d="M-2.6626 286.442C24.8886 289.418 69.6188 309.659 129.583 300.729C189.548 291.799 220.34 241.396 285.167 243.579C349.993 245.762 375.924 308.032 440.75 311.207C505.576 314.382 531.507 258.224 596.333 258.819C661.16 259.414 687.09 310.889 751.917 314.064C816.743 317.239 842.674 274.258 907.5 274.059C972.326 273.861 998.257 313.31 1063.08 313.112C1127.91 312.913 1153.84 270.924 1218.67 273.107C1283.49 275.289 1309.42 323.788 1374.25 323.589C1439.08 323.391 1465.01 274.535 1529.83 272.154C1594.66 269.773 1625.45 309.183 1685.42 312.159C1745.38 315.136 1790.11 291.799 1817.66 286.442" stroke="url(#paint16_linear_46_54)" stroke-width="11" stroke-linecap="round"/>
<path d="M-2.6626 248.341C24.8886 251.318 69.6188 271.559 129.583 262.629C189.548 253.699 220.34 203.296 285.167 205.479C349.993 207.662 375.924 269.931 440.75 273.106C505.576 276.281 531.507 220.124 596.333 220.719C661.16 221.314 687.09 272.789 751.917 275.964C816.743 279.139 842.674 236.157 907.5 235.959C972.326 235.761 998.257 275.21 1063.08 275.011C1127.91 274.813 1153.84 232.824 1218.67 235.006C1283.49 237.189 1309.42 285.687 1374.25 285.489C1439.08 285.291 1465.01 236.435 1529.83 234.054C1594.66 231.673 1625.45 271.082 1685.42 274.059C1745.38 277.036 1790.11 253.699 1817.66 248.341" stroke="url(#paint17_linear_46_54)" stroke-width="11" stroke-linecap="round"/>
<path d="M-2.6626 210.241C24.8886 213.218 69.6188 233.459 129.583 224.529C189.548 215.599 220.34 165.196 285.167 167.379C349.993 169.562 375.924 231.831 440.75 235.006C505.576 238.181 531.507 182.024 596.333 182.619C661.16 183.214 687.09 234.689 751.917 237.864C816.743 241.039 842.674 198.057 907.5 197.859C972.326 197.66 998.257 237.11 1063.08 236.911C1127.91 236.713 1153.84 194.724 1218.67 196.906C1283.49 199.089 1309.42 247.587 1374.25 247.389C1439.08 247.19 1465.01 198.335 1529.83 195.954C1594.66 193.573 1625.45 232.982 1685.42 235.959C1745.38 238.935 1790.11 215.599 1817.66 210.241" stroke="url(#paint18_linear_46_54)" stroke-width="11" stroke-linecap="round"/>
<path d="M-2.6626 172.141C24.8886 175.118 69.6188 195.358 129.583 186.429C189.548 177.499 220.34 127.096 285.167 129.279C349.993 131.462 375.924 193.731 440.75 196.906C505.576 200.081 531.507 143.923 596.333 144.519C661.16 145.114 687.09 196.589 751.917 199.764C816.743 202.939 842.674 159.957 907.5 159.759C972.326 159.56 998.257 199.01 1063.08 198.811C1127.91 198.613 1153.84 156.623 1218.67 158.806C1283.49 160.989 1309.42 209.487 1374.25 209.289C1439.08 209.09 1465.01 160.235 1529.83 157.854C1594.66 155.473 1625.45 194.882 1685.42 197.859C1745.38 200.835 1790.11 177.499 1817.66 172.141" stroke="url(#paint19_linear_46_54)" stroke-width="11" stroke-linecap="round"/>
<path d="M-2.6626 134.042C24.8886 137.018 69.6188 157.259 129.583 148.329C189.548 139.399 220.34 88.9964 285.167 91.1792C349.993 93.362 375.924 155.632 440.75 158.807C505.576 161.982 531.507 105.824 596.333 106.419C661.16 107.014 687.09 158.489 751.917 161.664C816.743 164.839 842.674 121.858 907.5 121.659C972.326 121.461 998.257 160.91 1063.08 160.712C1127.91 160.513 1153.84 118.524 1218.67 120.707C1283.49 122.889 1309.42 171.388 1374.25 171.189C1439.08 170.991 1465.01 122.135 1529.83 119.754C1594.66 117.373 1625.45 156.783 1685.42 159.759C1745.38 162.736 1790.11 139.399 1817.66 134.042" stroke="url(#paint20_linear_46_54)" stroke-width="11" stroke-linecap="round"/>
<path d="M-2.6626 95.9416C24.8886 98.9181 69.6188 119.159 129.583 110.229C189.548 101.299 220.34 50.8963 285.167 53.0791C349.993 55.2619 375.924 117.532 440.75 120.707C505.576 123.882 531.507 67.7238 596.333 68.3191C661.16 68.9144 687.09 120.389 751.917 123.564C816.743 126.739 842.674 83.7575 907.5 83.5591C972.326 83.3606 998.257 122.81 1063.08 122.612C1127.91 122.413 1153.84 80.4238 1218.67 82.6066C1283.49 84.7894 1309.42 133.288 1374.25 133.089C1439.08 132.891 1465.01 84.0353 1529.83 81.6541C1594.66 79.2728 1625.45 118.683 1685.42 121.659C1745.38 124.636 1790.11 101.299 1817.66 95.9416" stroke="url(#paint21_linear_46_54)" stroke-width="11" stroke-linecap="round"/>
</g>
<defs>
<linearGradient id="paint0_linear_46_54" x1="-107.85" y1="-37108.7" x2="19512.7" y2="-37108.7" gradientUnits="userSpaceOnUse">
<stop stop-color="#AD1218"/>
</linearGradient>
<linearGradient id="paint1_linear_46_54" x1="-107.85" y1="-36308.6" x2="19512.7" y2="-36308.6" gradientUnits="userSpaceOnUse">
<stop stop-color="#AD1218"/>
</linearGradient>
<linearGradient id="paint2_linear_46_54" x1="-107.85" y1="-36346.7" x2="19512.7" y2="-36346.7" gradientUnits="userSpaceOnUse">
<stop stop-color="#AD1218"/>
</linearGradient>
<linearGradient id="paint3_linear_46_54" x1="-107.85" y1="-36384.8" x2="19512.7" y2="-36384.8" gradientUnits="userSpaceOnUse">
<stop stop-color="#AD1218"/>
</linearGradient>
<linearGradient id="paint4_linear_46_54" x1="-107.85" y1="-36422.9" x2="19512.7" y2="-36422.9" gradientUnits="userSpaceOnUse">
<stop stop-color="#AD1218"/>
</linearGradient>
<linearGradient id="paint5_linear_46_54" x1="-107.85" y1="-36461" x2="19512.7" y2="-36461" gradientUnits="userSpaceOnUse">
<stop stop-color="#AD1218"/>
</linearGradient>
<linearGradient id="paint6_linear_46_54" x1="-107.85" y1="-36499.1" x2="19512.7" y2="-36499.1" gradientUnits="userSpaceOnUse">
<stop stop-color="#AD1218"/>
</linearGradient>
<linearGradient id="paint7_linear_46_54" x1="-107.85" y1="-36537.2" x2="19512.7" y2="-36537.2" gradientUnits="userSpaceOnUse">
<stop stop-color="#AD1218"/>
</linearGradient>
<linearGradient id="paint8_linear_46_54" x1="-107.85" y1="-36575.3" x2="19512.7" y2="-36575.3" gradientUnits="userSpaceOnUse">
<stop stop-color="#AD1218"/>
</linearGradient>
<linearGradient id="paint9_linear_46_54" x1="-107.85" y1="-36613.4" x2="19512.7" y2="-36613.4" gradientUnits="userSpaceOnUse">
<stop stop-color="#AD1218"/>
</linearGradient>
<linearGradient id="paint10_linear_46_54" x1="-107.85" y1="-36651.5" x2="19512.7" y2="-36651.5" gradientUnits="userSpaceOnUse">
<stop stop-color="#AD1218"/>
</linearGradient>
<linearGradient id="paint11_linear_46_54" x1="-107.85" y1="-36689.6" x2="19512.7" y2="-36689.6" gradientUnits="userSpaceOnUse">
<stop stop-color="#AD1218"/>
</linearGradient>
<linearGradient id="paint12_linear_46_54" x1="-107.85" y1="-36727.7" x2="19512.7" y2="-36727.7" gradientUnits="userSpaceOnUse">
<stop stop-color="#AD1218"/>
</linearGradient>
<linearGradient id="paint13_linear_46_54" x1="-107.85" y1="-36765.8" x2="19512.7" y2="-36765.8" gradientUnits="userSpaceOnUse">
<stop stop-color="#AD1218"/>
</linearGradient>
<linearGradient id="paint14_linear_46_54" x1="-107.85" y1="-36803.9" x2="19512.7" y2="-36803.9" gradientUnits="userSpaceOnUse">
<stop stop-color="#AD1218"/>
</linearGradient>
<linearGradient id="paint15_linear_46_54" x1="-107.85" y1="-36842" x2="19512.7" y2="-36842" gradientUnits="userSpaceOnUse">
<stop stop-color="#AD1218"/>
</linearGradient>
<linearGradient id="paint16_linear_46_54" x1="-107.85" y1="-36880.1" x2="19512.7" y2="-36880.1" gradientUnits="userSpaceOnUse">
<stop stop-color="#AD1218"/>
</linearGradient>
<linearGradient id="paint17_linear_46_54" x1="-107.85" y1="-36918.2" x2="19512.7" y2="-36918.2" gradientUnits="userSpaceOnUse">
<stop stop-color="#AD1218"/>
</linearGradient>
<linearGradient id="paint18_linear_46_54" x1="-107.85" y1="-36956.3" x2="19512.7" y2="-36956.3" gradientUnits="userSpaceOnUse">
<stop stop-color="#AD1218"/>
</linearGradient>
<linearGradient id="paint19_linear_46_54" x1="-107.85" y1="-36994.4" x2="19512.7" y2="-36994.4" gradientUnits="userSpaceOnUse">
<stop stop-color="#AD1218"/>
</linearGradient>
<linearGradient id="paint20_linear_46_54" x1="-107.85" y1="-37032.5" x2="19512.7" y2="-37032.5" gradientUnits="userSpaceOnUse">
<stop stop-color="#AD1218"/>
</linearGradient>
<linearGradient id="paint21_linear_46_54" x1="-107.85" y1="-37070.6" x2="19512.7" y2="-37070.6" gradientUnits="userSpaceOnUse">
<stop stop-color="#AD1218"/>
</linearGradient>
<clipPath id="clip0_46_54">
<rect width="1815" height="910" fill="white"/>
</clipPath>
</defs>
</svg>
